<?xml version="1.0" standalone="no"?><!DOCTYPE svg PUBLIC "-//W3C//DTD SVG 1.1//EN" "http://www.w3.org/Graphics/SVG/1.1/DTD/svg11.dtd"><svg t="1717396888946" class="icon" viewBox="0 0 1024 1024" version="1.1" xmlns="http://www.w3.org/2000/svg" p-id="1893" xmlns:xlink="http://www.w3.org/1999/xlink" width="200" height="200"><path d="M510.996 508.999m-377.496 0a377.496 377.496 0 1 0 754.992 0 377.496 377.496 0 1 0-754.992 0Z" fill="#FFBD76" p-id="1894"></path><path d="M510.997 901.495c-52.98 0-104.383-10.38-152.782-30.851-46.74-19.77-88.713-48.067-124.755-84.108-36.042-36.042-64.34-78.016-84.109-124.755-20.471-48.399-30.851-99.802-30.851-152.782 0-52.98 10.379-104.383 30.851-152.781 19.769-46.74 48.067-88.714 84.109-124.755 36.042-36.042 78.015-64.34 124.755-84.109 48.398-20.471 99.802-30.851 152.782-30.851s104.383 10.379 152.782 30.851c46.739 19.769 88.713 48.067 124.755 84.109 36.041 36.041 64.339 78.015 84.108 124.755 20.471 48.398 30.851 99.801 30.851 152.781 0 52.98-10.38 104.383-30.851 152.781-19.77 46.74-48.067 88.714-84.108 124.756-36.042 36.041-78.016 64.339-124.755 84.108-48.399 20.471-99.802 30.851-152.782 30.851z m0-754.992c-199.881 0-362.496 162.615-362.496 362.496s162.615 362.496 362.496 362.496c199.88 0 362.496-162.615 362.496-362.496S710.877 146.503 510.997 146.503z" fill="#2B2B2B" p-id="1895"></path><path d="M771.494 242.684L257.609 780.486" fill="#FFBD76" p-id="1896"></path><path d="M257.607 795.485a14.952 14.952 0 0 1-10.361-4.155c-5.989-5.723-6.206-15.218-0.482-21.207L760.65 232.321c5.723-5.989 15.219-6.204 21.207-0.482 5.99 5.724 6.206 15.218 0.482 21.208L268.454 790.848a14.957 14.957 0 0 1-10.847 4.637z" fill="#2B2B2B" p-id="1897"></path><path d="M490.312 137.536s-31.027 284.415-351.64 403.352" fill="#FFBD76" p-id="1898"></path><path d="M138.674 555.892c-6.093 0-11.822-3.739-14.065-9.787-2.881-7.767 1.079-16.399 8.846-19.28 160.716-59.62 245.051-162.509 287.499-238.323 46.193-82.504 54.371-151.918 54.448-152.61 0.918-8.226 8.315-14.166 16.554-13.254 8.227 0.908 14.165 8.298 13.267 16.527-0.33 3.026-8.646 75.126-57.394 162.74-28.573 51.355-65.211 97.418-108.896 136.911-54.498 49.268-120.12 88.342-195.044 116.136a14.99 14.99 0 0 1-5.215 0.94z" fill="#2B2B2B" p-id="1899"></path><path d="M504.532 882.616s86.617-325.784 381.374-360.689" fill="#FFBD76" p-id="1900"></path><path d="M504.542 897.62c-1.276 0-2.572-0.164-3.864-0.508-8.006-2.128-12.771-10.344-10.643-18.351 0.911-3.427 22.995-84.923 82.255-171.85 34.961-51.283 75.654-93.71 120.949-126.103 56.901-40.693 121.13-65.517 190.902-73.779 8.232-0.975 15.685 4.906 16.659 13.132s-4.904 15.686-13.132 16.659c-117.74 13.943-215.51 76.855-290.591 186.988-56.402 82.734-77.841 161.87-78.051 162.66-1.783 6.717-7.85 11.152-14.484 11.152z" fill="#2B2B2B" p-id="1901"></path><path d="M233.046 258.197L781.19 766.265" fill="#FFBD76" p-id="1902"></path><path d="M781.187 781.265a14.947 14.947 0 0 1-10.193-3.999L222.849 269.198c-6.076-5.631-6.436-15.122-0.804-21.198 5.631-6.077 15.122-6.437 21.198-0.804l548.145 508.067c6.075 5.632 6.436 15.122 0.804 21.197a14.959 14.959 0 0 1-11.005 4.805z" fill="#2B2B2B" p-id="1903"></path></svg>