<?xml version="1.0" standalone="no"?><!DOCTYPE svg PUBLIC "-//W3C//DTD SVG 1.1//EN" "http://www.w3.org/Graphics/SVG/1.1/DTD/svg11.dtd"><svg t="1717397234236" class="icon" viewBox="0 0 1690 1024" version="1.1" xmlns="http://www.w3.org/2000/svg" p-id="20597" xmlns:xlink="http://www.w3.org/1999/xlink" width="330.078125" height="200"><path d="M1479.465475 214.49494l-896.863973-0.939343-0.834972 786.856453 896.863974 1.043714a117.313523 117.313523 0 0 0 117.417895-117.209152l0.834971-552.229406a117.417895 117.417895 0 0 0-117.417895-117.522266z" fill="#92CAEE" p-id="20598"></path><path d="M1478.734875 921.298481l-896.863974-1.043714v80.157283l896.863974 1.043714a117.313523 117.313523 0 0 0 117.417895-117.209152V803.671843a117.313523 117.313523 0 0 1-117.417895 117.626638z" fill="#5DA1D3" p-id="20599"></path><path d="M581.735218 1000.474672l0.960218-786.960824 90.385686 0.104372-0.960217 786.960824z" fill="#5DA1D3" p-id="20600"></path><path d="M1309.131249 604.739837a259.15434 259.15434 0 1 1-258.841226-259.363084 259.049969 259.049969 0 0 1 258.841226 259.363084z" fill="#ECEBEB" p-id="20601"></path><path d="M1287.943842 604.739837c-3.653001 129.629356-105.937034 237.758191-238.175676 237.653819a237.966934 237.966934 0 0 1 0-475.933867c132.343014 0 234.313932 108.441949 237.653819 238.280048 0.7306 27.13658 43.001042 27.240952 42.374814 0-3.026772-115.539209-70.555108-219.18007-179.832029-261.867999a282.429176 282.429176 0 0 0-316.245531 82.870941c-161.671395 196.635835 12.83769 496.912531 263.642314 454.850832 135.682901-22.752979 229.617217-141.31896 232.957103-275.853774 0.7306-27.240952-41.644213-27.240952-42.374814 0z" fill="#49494A" p-id="20602"></path><path d="M1234.192539 604.635465a184.215631 184.215631 0 1 1-184.006887-184.320002 184.215631 184.215631 0 0 1 184.006887 184.320002z" fill="#F3D24F" p-id="20603"></path><path d="M1213.005133 604.635465c-3.54863 88.820114-72.12068 162.819481-163.236967 162.71511a162.923852 162.923852 0 1 1 0-325.847705c91.116286 0 159.479594 74.312481 162.819481 163.132595 1.043715 27.13658 43.314157 27.240952 41.748585 0-4.174858-111.990579-90.072572-204.985552-205.089923-205.507409a205.298666 205.298666 0 0 0 0 410.597332c114.808608 0 201.123807-93.934316 205.507408-205.089923 1.669943-27.240952-40.70487-27.240952-41.748584 0z" fill="#49494A" p-id="20604"></path><path d="M1516.93483 340.993152a39.765527 39.765527 0 1 1-39.661155-39.765527 39.661156 39.661156 0 0 1 39.661155 39.765527z" fill="#F3D24F" p-id="20605"></path><path d="M1495.851795 340.993152c-1.356829 23.901065-37.364983 24.005436-37.260612 0s36.008154-23.796693 37.260612 0c1.356829 27.13658 43.731643 27.345323 42.270442 0a60.952934 60.952934 0 1 0-63.144734 60.848562 61.996648 61.996648 0 0 0 63.144734-60.848562c1.565572-27.13658-40.809242-27.13658-42.270442 0z" fill="#49494A" p-id="20606"></path><path d="M837.789726 23.18205c-41.122356 21.918007-54.377532 71.911937-67.84145 115.852323l561.205352 0.626229c-13.359547-43.940386-28.493409-92.78623-67.632708-116.061066z" fill="#5DA1D3" p-id="20607"></path><path d="M827.143837 4.917044c-46.549672 29.745867-62.622877 77.861111-77.547996 128.48127a20.874292 20.874292 0 0 0 20.874292 26.719094l561.205352 0.7306a21.39615 21.39615 0 0 0 20.874292-26.823465C1336.580944 85.491813 1315.080423 9.822503 1255.693061 2.412129c-43.209785-5.427316-90.594429 0-134.117329 0L837.789726 1.994643c-27.240952 0-27.240952 42.270442 0 42.270442h384.086981c10.437146 0 27.032209-3.339887 36.634383 0 28.910895 10.437146 43.5229 72.225052 52.185731 100.509718l20.874293-26.823466-561.205352-0.626228 20.874292 26.719094c11.689604-38.51307 21.918007-79.94854 58.134905-103.119005 22.022379-14.194519 0.7306-50.828902-22.231122-36.008154zM1479.465475 193.307533l-784.769023-0.834972H582.601502a21.500521 21.500521 0 0 0-20.874293 20.874293l-0.939343 786.856453a21.500521 21.500521 0 0 0 20.874292 20.874292l758.676158 0.939343c98.944146 0 241.933049 22.022379 272.931374-105.728291 9.602175-39.765527 3.861744-86.523942 3.966115-126.706955V556.102735c0-69.720137 0.939343-139.440273 0-208.742924-0.834972-84.22777-50.724531-148.938076-138.396558-154.156649-27.240952-1.565572-27.13658 40.809242 0 42.374813 85.584599 5.00983 96.021745 74.625595 96.021745 141.110217V566.748624c0 105.206434 5.636059 212.395925 0 317.393617-7.410374 127.333184-180.040772 96.021745-266.773457 95.917373L876.720282 979.642129H581.870901l20.874293 20.874292 0.834971-786.856453-20.874292 20.874293 784.873395 0.939343h111.990579c27.13658 0.208743 27.13658-42.061699-0.104372-42.166071zM1668.795308 784.258752c27.240952 0 27.240952-42.374814 0-42.374814s-27.240952 42.374814 0 42.374814zM1647.921015 490.557457v200.393207c0 27.240952 41.748585 27.345323 41.748585 0L1690.817686 490.557457c0-27.240952-42.374814-27.345323-42.374813 0z" fill="#49494A" p-id="20608"></path><path d="M1483.744705 160.95238c71.39008 2.713658 136.517872 46.445301 157.287794 116.896037 10.437146 36.112526 7.097259 75.66931 6.992888 112.825551 0 27.240952 42.374814 27.345323 42.374813 0 0-57.299933 2.818029-113.347408-25.988494-165.533139a211.560954 211.560954 0 0 0-180.667001-106.458891c-27.240952-1.043715-27.240952 41.748585 0 42.270442zM1537.809123 678.426089v-87.463285c0-27.240952-42.270442-27.240952-42.270442 0V678.426089c0 27.240952 42.270442 27.240952 42.374813 0zM1537.60038 798.766385v-56.986819c0-27.240952-42.270442-27.345323-42.374814 0v56.986819c0 27.240952 41.748585 27.240952 41.748585 0zM1516.412973 885.185955c27.240952 0 27.240952-42.374814 0-42.374813s-27.345323 42.374814 0 42.374813z" fill="#49494A" p-id="20609"></path><path d="M494.198873 242.570863c-9.602175-39.765527-26.092866-46.967158-47.593387-77.13051h-302.67724c-21.918007 30.476467-38.617441 37.364983-48.219615 78.696082h1.043714v71.598823a116.582923 116.582923 0 0 0-1.043714 14.820748l-0.417486 552.020663a118.357238 118.357238 0 0 0 117.209152 117.417895H493.677016l0.939343-756.066872v-1.669943z" fill="#5DA1D3" p-id="20610"></path><path d="M514.551308 236.934804c-10.437146-37.051869-36.738755-89.759457-78.800454-92.681858-46.340929-3.026772-93.934316 0-140.379616 0s-92.264373-2.191801-138.083445 0-70.450737 55.212503-81.618483 93.934316a20.874292 20.874292 0 0 0 20.352435 26.823466h1.043715l-20.874293-20.874293c0 144.763218-1.356829 289.526436-1.4612 434.394025 0 67.11085-2.713658 134.952301 0 202.063151 3.444258 94.560545 75.773681 140.797102 163.132595 140.901474h256.336311a21.500521 21.500521 0 0 0 20.874293-20.874293q0-378.868407 0.939343-757.736814a21.500521 21.500521 0 0 0-20.874293-20.874293c-27.240952 0-27.345323 42.374814 0 42.374814l-20.874292-20.874293q0 378.868407-0.834972 757.736815l20.874293-20.874292H284.620977c-23.692322 0-47.80213 1.356829-71.494451 0-61.057305-3.757373-93.934316-48.950216-96.021746-106.772006-5.114202-154.052278 0-309.043899 0.521858-463.200549 0-55.108132 1.148086-110.111893 1.252457-165.115653a21.500521 21.500521 0 0 0-20.874292-20.874292H96.021745l20.874293 26.823466c8.662831-30.267724 27.345323-49.367702 46.027814-73.686253l-18.265006 10.437146h302.677241l-18.265006-10.437146c18.056263 23.58795 36.738755 42.687928 45.401586 72.016309 6.992888 24.631665 47.906501 13.56829 40.078641-12.628947z" fill="#49494A" p-id="20611"></path><path d="M375.737264 282.33639h32.668267a20.874292 20.874292 0 0 0 0-42.270442H375.737264a20.874292 20.874292 0 0 0-20.874293 20.874293 21.500521 21.500521 0 0 0 20.874293 20.874292zM182.441316 281.814533h124.619526c26.927837 0 26.927837-41.748585 0-41.748585H182.441316c-27.240952 0-27.240952 42.374814 0 42.374814zM283.890377 918.480452H407.048702c27.240952 0 27.240952-41.748585 0-42.374814H283.890377c-27.240952 0-27.240952 41.748585 0 42.374814zM181.710716 917.854223h41.748584c27.240952 0 27.345323-41.748585 0-42.374814h-41.748584c-27.240952 0-27.240952 41.748585 0 41.748585z" fill="#49494A" p-id="20612"></path><path d="M221.319685 165.106364l0.093935-64.501564 148.311847 0.208743-0.093934 64.501564z" fill="#F3D24F" p-id="20613"></path><path d="M369.579347 144.252946H221.2675l20.874292 20.874292V100.625675l-20.874292 20.874292h148.207476l-20.874293-20.874292v64.501563c0 27.240952 41.748585 27.345323 42.374814 0V100.834418a21.500521 21.500521 0 0 0-20.874292-20.874293h-148.207477a21.500521 21.500521 0 0 0-20.874292 20.874293v64.605935a21.500521 21.500521 0 0 0 20.874292 20.874292h148.311848c26.40598 0.313114 26.40598-42.061699-0.626229-42.061699zM0 350.073469V656.508082c0 27.240952 42.270442 27.240952 42.374814 0V350.073469c0-27.240952-41.748585-27.240952-42.374814 0zM20.874292 744.388853c27.240952 0 27.345323-42.374814 0-42.374814s-27.240952 42.374814 0 42.374814z" fill="#49494A" p-id="20614"></path></svg>