<?xml version="1.0" standalone="no"?><!DOCTYPE svg PUBLIC "-//W3C//DTD SVG 1.1//EN" "http://www.w3.org/Graphics/SVG/1.1/DTD/svg11.dtd"><svg t="1717396896226" class="icon" viewBox="0 0 1024 1024" version="1.1" xmlns="http://www.w3.org/2000/svg" p-id="2049" xmlns:xlink="http://www.w3.org/1999/xlink" width="200" height="200"><path d="M401.235 526.661c-2.063 0-4.157-0.466-6.129-1.45-0.371-0.185-37.565-18.534-86.264-27.53-63.541-11.738-115.751-2.896-155.18 26.28-6.102 4.516-14.716 3.231-19.232-2.874-4.517-6.105-3.231-14.716 2.874-19.233 45.32-33.535 106.615-44.282 177.26-31.082 52.345 9.782 91.203 29.022 92.831 29.837 6.793 3.396 9.546 11.656 6.15 18.449-2.409 4.818-7.266 7.603-12.31 7.603z" fill="#2B2B2B" p-id="2050"></path><path d="M474.12 695.108c-1.716 0-3.459-0.322-5.147-1.004-104.396-42.175-199.448-40.235-260.801-31.183-66.268 9.777-107.884 29.471-108.297 29.669-6.846 3.279-15.061 0.392-18.343-6.456-3.282-6.849-0.392-15.061 6.456-18.344 1.838-0.881 45.826-21.698 116.169-32.076 64.726-9.551 164.995-11.595 275.118 32.891 7.04 2.845 10.443 10.859 7.599 17.9-2.163 5.353-7.314 8.603-12.754 8.603zM677.432 742.183c-48.309 0-100.412-6.573-151.002-25.24-7.125-2.629-10.77-10.536-8.14-17.661 2.628-7.126 10.54-10.769 17.661-8.14 92.957 34.302 192.375 24.86 259.414 10.899 73.342-15.273 125.099-39.155 125.613-39.394 6.885-3.204 15.064-0.226 18.271 6.654 3.208 6.881 0.235 15.058-6.644 18.269-2.194 1.025-54.638 25.278-130.927 41.247-34.711 7.266-77.72 13.366-124.246 13.366zM672.182 861.275c-9.186 0-18.237-0.231-27.155-0.694-55.363-2.873-105.487-14.738-148.983-35.264-91.721-43.284-193.623-43.725-262.959-36.474-75.811 7.929-130.392 26.536-130.935 26.724-7.177 2.476-15.004-1.336-17.482-8.511-2.478-7.176 1.325-15.002 8.502-17.482 2.312-0.8 57.564-19.688 136.339-28.008 73.021-7.713 180.572-7.227 278.273 38.88 91.349 43.11 198.528 36.435 272.352 23.247 80.914-14.456 140.661-39.705 141.255-39.958 6.981-2.977 15.063 0.265 18.044 7.248 2.981 6.983-0.259 15.059-7.241 18.042-2.522 1.078-62.728 26.569-146.575 41.625-39.354 7.068-77.392 10.624-113.435 10.625z" fill="#3F80EA" p-id="2051"></path><path d="M341.747 342.585m-105.88 0a105.88 105.88 0 1 0 211.76 0 105.88 105.88 0 1 0-211.76 0Z" fill="#F2D8AA" p-id="2052"></path><path d="M341.845 462.228c-40.432 0-77.826-20.141-100.028-53.875-17.567-26.692-23.689-58.628-17.237-89.924s24.706-58.207 51.397-75.774c19.596-12.896 42.303-19.713 65.672-19.713 40.432 0 77.827 20.14 100.03 53.875 36.265 55.101 20.939 129.433-34.162 165.698-19.596 12.896-42.304 19.713-65.672 19.713z m-0.196-211.784c-17.978 0-35.459 5.251-50.553 15.184-20.555 13.528-34.613 34.253-39.582 58.354-4.969 24.102-0.255 48.696 13.275 69.252 17.098 25.981 45.905 41.492 77.055 41.492 17.978 0 35.459-5.25 50.553-15.184 42.434-27.928 54.236-85.172 26.308-127.607-17.099-25.98-45.906-41.491-77.056-41.491z" fill="#2B2B2B" p-id="2053"></path><path d="M252.043 398.88c-32.148-48.846-18.611-114.505 30.235-146.653s114.505-18.611 146.653 30.235L252.043 398.88z" fill="#E08E2D" p-id="2054"></path><path d="M248.583 417.666l-8.027-11.227c-36.263-55.102-20.939-129.434 34.162-165.698 19.596-12.897 42.303-19.713 65.672-19.713 40.432 0 77.826 20.14 100.028 53.874l7.098 11.801-198.933 130.963z m91.806-169.137c-17.978 0-35.459 5.251-50.551 15.184-38.531 25.36-51.805 74.892-33.014 115.558L409.03 279.097c-17.341-19.344-42.142-30.568-68.641-30.568z" fill="#2B2B2B" p-id="2055"></path><path d="M442.842 527.518s28.705 6.532 77.176 28.533c42.457 19.271 88.52 28.361 152.461 31.798l-160.54-136.132s-44.742-30.994-91.671 16.501c-38.044 38.502-27.96 49.044-27.96 49.044" fill="#F2D8AA" p-id="2056"></path><path d="M668.826 582.156c7.176 0.086 12.719-0.387 19.423-0.215l-169.27-143.762-1.064-0.818c-1.838-1.275-18.671-12.461-43.27-12.461-23.56 0-46.403 10.592-66.057 30.632-19.863 20.253-30.301 38.98-31.771 56.302 2.197 0.287 4.598 0.688 6.725 1.01 0.758 0.021 1.525 0.236 2.234 0.344 0.377-0.058 0.905 0.081 1.311 0.172 1.246 0.279 2.156 0.169 3.029 0.602 0.71-0.052 0.969 0.236 1.699 0.375 1.514 0.287 3.009 0.638 4.497 1.011a7.113 7.113 0 0 1 2.255 0.413c0.176-0.014 0.345-0.037 0.53-0.037 1.369 0 2.525 0.329 3.471 0.884 0.542 0.078 1.06 0.19 1.523 0.373-0.009-0.072-0.021-0.141-0.025-0.22-0.33-6.139 2.369-19.757 24.156-41.97 14.568-14.855 30.187-22.387 46.422-22.387 14.413 0 25.098 6.032 27.211 7.316l143.422 121.814c1.096 0.129 2.828 0.11 3.695 0.236 1.031 0.15 6.536 0.182 7.434 0.215 2.935 0.106 5.315 0.092 8.25 0.129 1.248 0.084 2.575 0.022 4.17 0.042z" fill="#2B2B2B" p-id="2057"></path><path d="M672.182 609.637c-9.186 0-18.237-0.231-27.155-0.694-55.363-2.873-105.487-14.738-148.983-35.264-91.721-43.284-193.623-43.725-262.959-36.474-75.811 7.929-130.392 26.537-130.935 26.724-7.177 2.474-15.004-1.335-17.482-8.511-2.478-7.176 1.325-15.002 8.502-17.482 2.312-0.8 57.564-19.688 136.339-28.008 73.021-7.711 180.572-7.227 278.273 38.88 91.349 43.109 198.528 36.435 272.352 23.247 80.914-14.456 140.661-39.705 141.255-39.958 6.981-2.978 15.063 0.264 18.044 7.248 2.981 6.983-0.259 15.059-7.241 18.042-2.522 1.078-62.728 26.569-146.575 41.625-39.354 7.068-77.392 10.625-113.435 10.625z" fill="#3F80EA" p-id="2058"></path><path d="M497.397 485.839a13.746 13.746 0 0 1-11.663-6.446c-4.035-6.434-2.091-14.92 4.343-18.956 1.791-1.124 44.55-27.713 102.463-44.112 78.351-22.186 146.643-14.54 197.496 22.113 6.16 4.441 7.555 13.035 3.114 19.195-4.441 6.162-13.034 7.555-19.196 3.115-106.992-77.118-267.652 21.977-269.264 22.987a13.691 13.691 0 0 1-7.293 2.104z" fill="#2B2B2B" p-id="2059"></path></svg>